<mxfile host="app.diagrams.net" modified="2023-05-08T01:20:58.388Z" agent="Mozilla/5.0 (Windows NT 10.0; Win64; x64) AppleWebKit/537.36 (KHTML, like Gecko) Chrome/112.0.0.0 Safari/537.36" etag="d4ihfxEuLWFiNaeMG8DE" version="21.1.9" type="device">
  <diagram name="Página-1" id="nI0CxpR5LfgWJy89kM8e">
    <mxGraphModel dx="2607" dy="1307" grid="1" gridSize="10" guides="1" tooltips="1" connect="1" arrows="1" fold="1" page="1" pageScale="1" pageWidth="827" pageHeight="1169" math="0" shadow="0">
      <root>
        <mxCell id="0" />
        <mxCell id="1" parent="0" />
        <mxCell id="-Hd2h_lQhJefA9O85nn3-17" value="Processo de atualização de dados" style="swimlane;childLayout=stackLayout;resizeParent=1;resizeParentMax=0;horizontal=1;startSize=20;horizontalStack=0;html=1;" vertex="1" parent="1">
          <mxGeometry x="50" y="170" width="1790" height="570" as="geometry" />
        </mxCell>
        <mxCell id="-Hd2h_lQhJefA9O85nn3-18" value="Facilities" style="swimlane;startSize=20;horizontal=0;html=1;" vertex="1" parent="-Hd2h_lQhJefA9O85nn3-17">
          <mxGeometry y="20" width="1790" height="120" as="geometry" />
        </mxCell>
        <mxCell id="-Hd2h_lQhJefA9O85nn3-21" value="" style="ellipse;whiteSpace=wrap;html=1;fillColor=#d5e8d4;strokeColor=#82b366;" vertex="1" parent="-Hd2h_lQhJefA9O85nn3-18">
          <mxGeometry x="50" y="40" width="40" height="40" as="geometry" />
        </mxCell>
        <mxCell id="-Hd2h_lQhJefA9O85nn3-19" value="Site Amazon" style="swimlane;startSize=20;horizontal=0;html=1;" vertex="1" parent="-Hd2h_lQhJefA9O85nn3-17">
          <mxGeometry y="140" width="1790" height="190" as="geometry" />
        </mxCell>
        <mxCell id="-Hd2h_lQhJefA9O85nn3-25" value="" style="edgeStyle=orthogonalEdgeStyle;rounded=0;orthogonalLoop=1;jettySize=auto;html=1;" edge="1" parent="-Hd2h_lQhJefA9O85nn3-19" source="-Hd2h_lQhJefA9O85nn3-22" target="-Hd2h_lQhJefA9O85nn3-24">
          <mxGeometry relative="1" as="geometry" />
        </mxCell>
        <mxCell id="-Hd2h_lQhJefA9O85nn3-22" value="Acessa o site www.amazon.com.br" style="rounded=1;whiteSpace=wrap;html=1;" vertex="1" parent="-Hd2h_lQhJefA9O85nn3-19">
          <mxGeometry x="110" y="90" width="120" height="60" as="geometry" />
        </mxCell>
        <mxCell id="-Hd2h_lQhJefA9O85nn3-27" value="" style="edgeStyle=orthogonalEdgeStyle;rounded=0;orthogonalLoop=1;jettySize=auto;html=1;" edge="1" parent="-Hd2h_lQhJefA9O85nn3-19" source="-Hd2h_lQhJefA9O85nn3-24" target="-Hd2h_lQhJefA9O85nn3-26">
          <mxGeometry relative="1" as="geometry" />
        </mxCell>
        <mxCell id="-Hd2h_lQhJefA9O85nn3-24" value="Clica no menu -&amp;gt; Mais Vendidos" style="rounded=1;whiteSpace=wrap;html=1;" vertex="1" parent="-Hd2h_lQhJefA9O85nn3-19">
          <mxGeometry x="270" y="90" width="120" height="60" as="geometry" />
        </mxCell>
        <mxCell id="-Hd2h_lQhJefA9O85nn3-26" value="Seleciona departamento &quot;Eletrônicos&quot;" style="rounded=1;whiteSpace=wrap;html=1;" vertex="1" parent="-Hd2h_lQhJefA9O85nn3-19">
          <mxGeometry x="430" y="90" width="120" height="60" as="geometry" />
        </mxCell>
        <mxCell id="-Hd2h_lQhJefA9O85nn3-32" value="" style="edgeStyle=orthogonalEdgeStyle;rounded=0;orthogonalLoop=1;jettySize=auto;html=1;" edge="1" parent="-Hd2h_lQhJefA9O85nn3-19" source="-Hd2h_lQhJefA9O85nn3-30" target="-Hd2h_lQhJefA9O85nn3-31">
          <mxGeometry relative="1" as="geometry" />
        </mxCell>
        <mxCell id="-Hd2h_lQhJefA9O85nn3-30" value="Identifica itens #1, #2, #n..." style="rounded=1;whiteSpace=wrap;html=1;" vertex="1" parent="-Hd2h_lQhJefA9O85nn3-19">
          <mxGeometry x="590" y="90" width="120" height="60" as="geometry" />
        </mxCell>
        <mxCell id="-Hd2h_lQhJefA9O85nn3-31" value="Abrir item #N" style="rounded=1;whiteSpace=wrap;html=1;" vertex="1" parent="-Hd2h_lQhJefA9O85nn3-19">
          <mxGeometry x="750" y="90" width="120" height="60" as="geometry" />
        </mxCell>
        <mxCell id="-Hd2h_lQhJefA9O85nn3-33" value="Copiar Título, preço, descrição" style="rounded=1;whiteSpace=wrap;html=1;" vertex="1" parent="-Hd2h_lQhJefA9O85nn3-19">
          <mxGeometry x="910" y="90" width="120" height="60" as="geometry" />
        </mxCell>
        <mxCell id="-Hd2h_lQhJefA9O85nn3-50" value="" style="edgeStyle=orthogonalEdgeStyle;rounded=0;orthogonalLoop=1;jettySize=auto;html=1;entryX=0;entryY=0.5;entryDx=0;entryDy=0;" edge="1" parent="-Hd2h_lQhJefA9O85nn3-19" source="-Hd2h_lQhJefA9O85nn3-31" target="-Hd2h_lQhJefA9O85nn3-33">
          <mxGeometry relative="1" as="geometry" />
        </mxCell>
        <mxCell id="-Hd2h_lQhJefA9O85nn3-61" value="&amp;nbsp;N" style="edgeStyle=orthogonalEdgeStyle;rounded=0;orthogonalLoop=1;jettySize=auto;html=1;entryX=0.5;entryY=0;entryDx=0;entryDy=0;exitX=0.5;exitY=0;exitDx=0;exitDy=0;" edge="1" parent="-Hd2h_lQhJefA9O85nn3-19" source="-Hd2h_lQhJefA9O85nn3-55" target="-Hd2h_lQhJefA9O85nn3-31">
          <mxGeometry x="-0.9474" relative="1" as="geometry">
            <Array as="points">
              <mxPoint x="1450" y="20" />
              <mxPoint x="810" y="20" />
            </Array>
            <mxPoint as="offset" />
          </mxGeometry>
        </mxCell>
        <mxCell id="-Hd2h_lQhJefA9O85nn3-55" value="Item 50 ?" style="rhombus;whiteSpace=wrap;html=1;" vertex="1" parent="-Hd2h_lQhJefA9O85nn3-19">
          <mxGeometry x="1410" y="70" width="80" height="80" as="geometry" />
        </mxCell>
        <mxCell id="-Hd2h_lQhJefA9O85nn3-23" style="edgeStyle=orthogonalEdgeStyle;rounded=0;orthogonalLoop=1;jettySize=auto;html=1;exitX=1;exitY=0.5;exitDx=0;exitDy=0;" edge="1" parent="-Hd2h_lQhJefA9O85nn3-17" source="-Hd2h_lQhJefA9O85nn3-21" target="-Hd2h_lQhJefA9O85nn3-22">
          <mxGeometry relative="1" as="geometry">
            <mxPoint x="90" y="140" as="sourcePoint" />
          </mxGeometry>
        </mxCell>
        <mxCell id="-Hd2h_lQhJefA9O85nn3-58" value="&amp;nbsp;S" style="edgeStyle=orthogonalEdgeStyle;rounded=0;orthogonalLoop=1;jettySize=auto;html=1;" edge="1" parent="-Hd2h_lQhJefA9O85nn3-17" source="-Hd2h_lQhJefA9O85nn3-55" target="-Hd2h_lQhJefA9O85nn3-57">
          <mxGeometry x="-0.6923" relative="1" as="geometry">
            <mxPoint as="offset" />
          </mxGeometry>
        </mxCell>
        <mxCell id="-Hd2h_lQhJefA9O85nn3-20" value="Excel" style="swimlane;startSize=20;horizontal=0;html=1;" vertex="1" parent="-Hd2h_lQhJefA9O85nn3-17">
          <mxGeometry y="330" width="1790" height="120" as="geometry" />
        </mxCell>
        <mxCell id="-Hd2h_lQhJefA9O85nn3-62" value="" style="edgeStyle=orthogonalEdgeStyle;rounded=0;orthogonalLoop=1;jettySize=auto;html=1;" edge="1" parent="-Hd2h_lQhJefA9O85nn3-20" source="-Hd2h_lQhJefA9O85nn3-35" target="-Hd2h_lQhJefA9O85nn3-43">
          <mxGeometry relative="1" as="geometry" />
        </mxCell>
        <mxCell id="-Hd2h_lQhJefA9O85nn3-35" value="Salvar na coluna B (Titulo)" style="rounded=1;whiteSpace=wrap;html=1;" vertex="1" parent="-Hd2h_lQhJefA9O85nn3-20">
          <mxGeometry x="1070" y="25" width="120" height="60" as="geometry" />
        </mxCell>
        <mxCell id="-Hd2h_lQhJefA9O85nn3-36" value="Abrir Excel" style="rounded=1;whiteSpace=wrap;html=1;" vertex="1" parent="-Hd2h_lQhJefA9O85nn3-20">
          <mxGeometry x="590" y="25" width="120" height="60" as="geometry" />
        </mxCell>
        <mxCell id="-Hd2h_lQhJefA9O85nn3-63" value="" style="edgeStyle=orthogonalEdgeStyle;rounded=0;orthogonalLoop=1;jettySize=auto;html=1;" edge="1" parent="-Hd2h_lQhJefA9O85nn3-20" source="-Hd2h_lQhJefA9O85nn3-43" target="-Hd2h_lQhJefA9O85nn3-46">
          <mxGeometry relative="1" as="geometry" />
        </mxCell>
        <mxCell id="-Hd2h_lQhJefA9O85nn3-43" value="Salvar na coluna C (Preço)" style="rounded=1;whiteSpace=wrap;html=1;" vertex="1" parent="-Hd2h_lQhJefA9O85nn3-20">
          <mxGeometry x="1230" y="25" width="120" height="60" as="geometry" />
        </mxCell>
        <mxCell id="-Hd2h_lQhJefA9O85nn3-46" value="Salvar na coluna D (Descrição)" style="rounded=1;whiteSpace=wrap;html=1;" vertex="1" parent="-Hd2h_lQhJefA9O85nn3-20">
          <mxGeometry x="1390" y="24" width="120" height="60" as="geometry" />
        </mxCell>
        <mxCell id="-Hd2h_lQhJefA9O85nn3-54" style="edgeStyle=orthogonalEdgeStyle;rounded=0;orthogonalLoop=1;jettySize=auto;html=1;" edge="1" parent="-Hd2h_lQhJefA9O85nn3-20" source="-Hd2h_lQhJefA9O85nn3-48" target="-Hd2h_lQhJefA9O85nn3-35">
          <mxGeometry relative="1" as="geometry" />
        </mxCell>
        <mxCell id="-Hd2h_lQhJefA9O85nn3-48" value="Salvar na coluna A o número do # (Ordem)" style="rounded=1;whiteSpace=wrap;html=1;" vertex="1" parent="-Hd2h_lQhJefA9O85nn3-20">
          <mxGeometry x="910" y="25" width="120" height="60" as="geometry" />
        </mxCell>
        <mxCell id="-Hd2h_lQhJefA9O85nn3-57" value="Salvar planilha" style="rounded=1;whiteSpace=wrap;html=1;" vertex="1" parent="-Hd2h_lQhJefA9O85nn3-20">
          <mxGeometry x="1550" y="24" width="120" height="60" as="geometry" />
        </mxCell>
        <mxCell id="-Hd2h_lQhJefA9O85nn3-64" value="Emaill" style="swimlane;startSize=20;horizontal=0;html=1;" vertex="1" parent="-Hd2h_lQhJefA9O85nn3-17">
          <mxGeometry y="450" width="1790" height="120" as="geometry" />
        </mxCell>
        <mxCell id="-Hd2h_lQhJefA9O85nn3-65" value="Enviar email" style="rounded=1;whiteSpace=wrap;html=1;" vertex="1" parent="-Hd2h_lQhJefA9O85nn3-64">
          <mxGeometry x="1550" y="40" width="120" height="60" as="geometry" />
        </mxCell>
        <mxCell id="-Hd2h_lQhJefA9O85nn3-59" value="" style="ellipse;whiteSpace=wrap;html=1;fillColor=#f8cecc;strokeColor=#b85450;" vertex="1" parent="-Hd2h_lQhJefA9O85nn3-64">
          <mxGeometry x="1710" y="50" width="40" height="40" as="geometry" />
        </mxCell>
        <mxCell id="-Hd2h_lQhJefA9O85nn3-60" value="" style="edgeStyle=orthogonalEdgeStyle;rounded=0;orthogonalLoop=1;jettySize=auto;html=1;exitX=1;exitY=0.5;exitDx=0;exitDy=0;" edge="1" parent="-Hd2h_lQhJefA9O85nn3-64" source="-Hd2h_lQhJefA9O85nn3-65" target="-Hd2h_lQhJefA9O85nn3-59">
          <mxGeometry relative="1" as="geometry" />
        </mxCell>
        <mxCell id="-Hd2h_lQhJefA9O85nn3-37" style="edgeStyle=orthogonalEdgeStyle;rounded=0;orthogonalLoop=1;jettySize=auto;html=1;entryX=0;entryY=0.5;entryDx=0;entryDy=0;exitX=0.5;exitY=1;exitDx=0;exitDy=0;" edge="1" parent="-Hd2h_lQhJefA9O85nn3-17" source="-Hd2h_lQhJefA9O85nn3-26" target="-Hd2h_lQhJefA9O85nn3-36">
          <mxGeometry relative="1" as="geometry" />
        </mxCell>
        <mxCell id="-Hd2h_lQhJefA9O85nn3-51" value="" style="edgeStyle=orthogonalEdgeStyle;rounded=0;orthogonalLoop=1;jettySize=auto;html=1;" edge="1" parent="-Hd2h_lQhJefA9O85nn3-17" source="-Hd2h_lQhJefA9O85nn3-36" target="-Hd2h_lQhJefA9O85nn3-30">
          <mxGeometry relative="1" as="geometry" />
        </mxCell>
        <mxCell id="-Hd2h_lQhJefA9O85nn3-53" style="edgeStyle=orthogonalEdgeStyle;rounded=0;orthogonalLoop=1;jettySize=auto;html=1;" edge="1" parent="-Hd2h_lQhJefA9O85nn3-17" source="-Hd2h_lQhJefA9O85nn3-33" target="-Hd2h_lQhJefA9O85nn3-48">
          <mxGeometry relative="1" as="geometry" />
        </mxCell>
        <mxCell id="-Hd2h_lQhJefA9O85nn3-56" style="edgeStyle=orthogonalEdgeStyle;rounded=0;orthogonalLoop=1;jettySize=auto;html=1;entryX=0.5;entryY=1;entryDx=0;entryDy=0;" edge="1" parent="-Hd2h_lQhJefA9O85nn3-17" source="-Hd2h_lQhJefA9O85nn3-46" target="-Hd2h_lQhJefA9O85nn3-55">
          <mxGeometry relative="1" as="geometry" />
        </mxCell>
        <mxCell id="-Hd2h_lQhJefA9O85nn3-66" style="edgeStyle=orthogonalEdgeStyle;rounded=0;orthogonalLoop=1;jettySize=auto;html=1;entryX=0.5;entryY=0;entryDx=0;entryDy=0;" edge="1" parent="-Hd2h_lQhJefA9O85nn3-17" source="-Hd2h_lQhJefA9O85nn3-57" target="-Hd2h_lQhJefA9O85nn3-65">
          <mxGeometry relative="1" as="geometry" />
        </mxCell>
      </root>
    </mxGraphModel>
  </diagram>
</mxfile>
